<svg version="1.1" viewBox="0.0 0.0 333.74015748031496 221.54855643044618" fill="none" stroke="none" stroke-linecap="square" stroke-miterlimit="10" xmlns:xlink="http://www.w3.org/1999/xlink" xmlns="http://www.w3.org/2000/svg"><clipPath id="p.0"><path d="m0 0l333.74014 0l0 221.54855l-333.74014 0l0 -221.54855z" clip-rule="nonzero"/></clipPath><g clip-path="url(#p.0)"><path fill="#000000" fill-opacity="0.0" d="m0 0l333.74014 0l0 221.54855l-333.74014 0z" fill-rule="evenodd"/><path fill="#000000" fill-opacity="0.0" d="m89.236084 105.14641l-39.401577 -58.70866" fill-rule="evenodd"/><path stroke="#38761d" stroke-width="4.0" stroke-linejoin="round" stroke-linecap="butt" d="m89.236084 105.14641l-39.401577 -58.70866" fill-rule="evenodd"/><path fill="#38761d" d="m27.225965 202.63292l0 0c0 -10.454269 8.3408985 -18.929138 18.629923 -18.929138l0 0c4.94096 0 9.679554 1.9943237 13.173344 5.54422c3.4937859 3.5498962 5.4565773 8.3645935 5.4565773 13.384918l0 0c0 10.454269 -8.3409 18.929138 -18.629921 18.929138l0 0c-10.289024 0 -18.629923 -8.474869 -18.629923 -18.929138z" fill-rule="evenodd"/><path stroke="#38761d" stroke-width="1.0" stroke-linejoin="round" stroke-linecap="butt" d="m27.225965 202.63292l0 0c0 -10.454269 8.3408985 -18.929138 18.629923 -18.929138l0 0c4.94096 0 9.679554 1.9943237 13.173344 5.54422c3.4937859 3.5498962 5.4565773 8.3645935 5.4565773 13.384918l0 0c0 10.454269 -8.3409 18.929138 -18.629921 18.929138l0 0c-10.289024 0 -18.629923 -8.474869 -18.629923 -18.929138z" fill-rule="evenodd"/><path fill="#38761d" d="m268.8842 179.6653l0 0c0 -10.454285 8.340881 -18.929138 18.629913 -18.929138l0 0c4.9409485 0 9.679535 1.9943085 13.17334 5.54422c3.4937744 3.5498962 5.4565735 8.3645935 5.4565735 13.384918l0 0c0 10.454269 -8.340912 18.929123 -18.629913 18.929123l0 0c-10.289032 0 -18.629913 -8.4748535 -18.629913 -18.929123z" fill-rule="evenodd"/><path stroke="#38761d" stroke-width="1.0" stroke-linejoin="round" stroke-linecap="butt" d="m268.8842 179.6653l0 0c0 -10.454285 8.340881 -18.929138 18.629913 -18.929138l0 0c4.9409485 0 9.679535 1.9943085 13.17334 5.54422c3.4937744 3.5498962 5.4565735 8.3645935 5.4565735 13.384918l0 0c0 10.454269 -8.340912 18.929123 -18.629913 18.929123l0 0c-10.289032 0 -18.629913 -8.4748535 -18.629913 -18.929123z" fill-rule="evenodd"/><path fill="#000000" fill-opacity="0.0" d="m59.029232 189.248l30.204723 -43.244095" fill-rule="evenodd"/><path stroke="#38761d" stroke-width="4.0" stroke-linejoin="round" stroke-linecap="butt" d="m59.029232 189.248l30.204723 -43.244095" fill-rule="evenodd"/><path fill="#000000" fill-opacity="0.0" d="m129.45766 145.99158l139.43306 33.66928" fill-rule="evenodd"/><path stroke="#38761d" stroke-width="4.0" stroke-linejoin="round" stroke-linecap="butt" d="m129.45766 145.99158l139.43306 33.66928" fill-rule="evenodd"/><path fill="#38761d" d="m18.044481 33.039436l0 0c0 -10.454273 8.3409 -18.929134 18.629923 -18.929134l0 0c4.94096 0 9.679554 1.9943142 13.173344 5.5442142c3.4937859 3.549902 5.4565773 8.364601 5.4565773 13.38492l0 0c0 10.454273 -8.3409 18.929134 -18.629921 18.929134l0 0c-10.289022 0 -18.629923 -8.474861 -18.629923 -18.929134z" fill-rule="evenodd"/><path stroke="#38761d" stroke-width="1.0" stroke-linejoin="round" stroke-linecap="butt" d="m18.044481 33.039436l0 0c0 -10.454273 8.3409 -18.929134 18.629923 -18.929134l0 0c4.94096 0 9.679554 1.9943142 13.173344 5.5442142c3.4937859 3.549902 5.4565773 8.364601 5.4565773 13.38492l0 0c0 10.454273 -8.3409 18.929134 -18.629921 18.929134l0 0c-10.289022 0 -18.629923 -8.474861 -18.629923 -18.929134z" fill-rule="evenodd"/><path fill="#38761d" d="m326.27554 18.915699l0 0c0 10.454271 -8.340912 18.929134 -18.629913 18.929134l0 0c-4.940979 0 -9.679565 -1.9943161 -13.17337 -5.544216c-3.4937744 -3.549902 -5.4565735 -8.364601 -5.4565735 -13.384918l0 0c0 -10.454272 8.340912 -18.929134 18.629944 -18.929134l0 0c10.289001 0 18.629913 8.474862 18.629913 18.929134z" fill-rule="evenodd"/><path stroke="#38761d" stroke-width="1.0" stroke-linejoin="round" stroke-linecap="butt" d="m326.27554 18.915699l0 0c0 10.454271 -8.340912 18.929134 -18.629913 18.929134l0 0c-4.940979 0 -9.679565 -1.9943161 -13.17337 -5.544216c-3.4937744 -3.549902 -5.4565735 -8.364601 -5.4565735 -13.384918l0 0c0 -10.454272 8.340912 -18.929134 18.629944 -18.929134l0 0c10.289001 0 18.629913 8.474862 18.629913 18.929134z" fill-rule="evenodd"/><path fill="#38761d" d="m217.81729 37.848183l0 0c0 10.454273 -8.340897 18.929134 -18.629913 18.929134l0 0c-4.9409637 0 -9.679565 -1.9943123 -13.17334 -5.544216c-3.4937897 -3.5499 -5.4565887 -8.364601 -5.4565887 -13.384918l0 0c0 -10.454271 8.340897 -18.929134 18.629929 -18.929134l0 0c10.289017 0 18.629913 8.474863 18.629913 18.929134z" fill-rule="evenodd"/><path stroke="#38761d" stroke-width="1.0" stroke-linejoin="round" stroke-linecap="butt" d="m217.81729 37.848183l0 0c0 10.454273 -8.340897 18.929134 -18.629913 18.929134l0 0c-4.9409637 0 -9.679565 -1.9943123 -13.17334 -5.544216c-3.4937897 -3.5499 -5.4565887 -8.364601 -5.4565887 -13.384918l0 0c0 -10.454271 8.340897 -18.929134 18.629929 -18.929134l0 0c10.289017 0 18.629913 8.474863 18.629913 18.929134z" fill-rule="evenodd"/><path fill="#000000" fill-opacity="0.0" d="m289.0157 18.915699l-71.212585 18.929134" fill-rule="evenodd"/><path stroke="#38761d" stroke-width="4.0" stroke-linejoin="round" stroke-linecap="butt" d="m289.0157 18.915699l-71.212585 18.929134" fill-rule="evenodd"/><path fill="#000000" fill-opacity="0.0" d="m129.45766 105.14641l56.566925 -53.921257" fill-rule="evenodd"/><path stroke="#38761d" stroke-width="4.0" stroke-linejoin="round" stroke-linecap="butt" d="m129.45766 105.14641l56.566925 -53.921257" fill-rule="evenodd"/><path fill="#38761d" d="m80.90592 125.56899l0 0c0 -15.951027 12.733444 -28.88189 28.440948 -28.88189l0 0c7.543007 0 14.777069 3.0429 20.110786 8.459305c5.3337097 5.4164047 8.330154 12.762627 8.330154 20.422585l0 0c0 15.951027 -12.733444 28.88189 -28.44094 28.88189l0 0c-15.707504 0 -28.440948 -12.930862 -28.440948 -28.88189z" fill-rule="evenodd"/><path stroke="#38761d" stroke-width="1.0" stroke-linejoin="round" stroke-linecap="butt" d="m80.90592 125.56899l0 0c0 -15.951027 12.733444 -28.88189 28.440948 -28.88189l0 0c7.543007 0 14.777069 3.0429 20.110786 8.459305c5.3337097 5.4164047 8.330154 12.762627 8.330154 20.422585l0 0c0 15.951027 -12.733444 28.88189 -28.44094 28.88189l0 0c-15.707504 0 -28.440948 -12.930862 -28.440948 -28.88189z" fill-rule="evenodd"/><path fill="#000000" fill-opacity="0.0" d="m120.44561 83.87834l213.29132 0l0 83.40158l-213.29132 0z" fill-rule="evenodd"/><path fill="#134f5c" d="m167.9194 98.07226q0 1.28125 -0.46875 2.421875q-0.46875 1.125 -1.3125 1.96875q-0.84375 0.84375 -1.984375 1.328125q-1.125 0.484375 -2.453125 0.484375q-1.328125 0 -2.484375 -0.484375q-1.140625 -0.484375 -1.984375 -1.328125q-0.84375 -0.84375 -1.3125 -1.96875q-0.46875 -1.140625 -0.46875 -2.421875q0 -1.296875 0.46875 -2.421875q0.46875 -1.140625 1.3125 -2.0q0.84375 -0.859375 1.984375 -1.34375q1.15625 -0.484375 2.484375 -0.484375q1.328125 0 2.453125 0.484375q1.140625 0.484375 1.984375 1.34375q0.84375 0.859375 1.3125 2.0q0.46875 1.125 0.46875 2.421875zm-10.546875 18.28125l-11.21875 0l0 -7.421875l20.984375 0l0 32.265617l11.4375 0l0 7.421875l-33.78125 0l0 -7.421875l12.578125 0l0 -24.843742zm56.71875 8.0q0.078125 -2.21875 -0.21875 -3.78125q-0.296875 -1.5625 -0.9375 -2.578125q-0.640625 -1.015625 -1.578125 -1.484375q-0.9375 -0.46875 -2.15625 -0.46875q-2.109375 0 -4.359375 1.734375q-2.234375 1.734375 -4.9375 5.71875l0 25.124992l-9.765625 0l0 -39.687492l8.640625 0l0.34375 5.78125q0.984375 -1.53125 2.203125 -2.734375q1.234375 -1.21875 2.734375 -2.09375q1.515625 -0.875 3.34375 -1.34375q1.84375 -0.46875 4.03125 -0.46875q3.0 0 5.328125 1.03125q2.328125 1.03125 3.90625 3.0625q1.578125 2.03125 2.34375 5.109375q0.765625 3.0625 0.640625 7.078125l-9.5625 0zm43.3125 24.265617l-0.234375 -5.203125q-1.2500153 1.328125 -2.6250153 2.453125q-1.359375 1.109375 -3.0 1.9375q-1.640625 0.8125 -3.5781097 1.265625q-1.921875 0.453125 -4.234375 0.453125q-3.046875 0 -5.359375 -0.90625q-2.296875 -0.90625 -3.859375 -2.5q-1.5625 -1.609375 -2.359375 -3.875q-0.796875 -2.265625 -0.796875 -5.0q0 -2.8125 1.1875 -5.1875q1.1875 -2.390625 3.625 -4.1093674q2.453125 -1.71875 6.09375 -2.6875q3.65625 -0.984375 8.57811 -0.984375l5.2031403 0l0 -2.375q0 -1.53125 -0.43751526 -2.75q-0.421875 -1.234375 -1.390625 -2.09375q-0.953125 -0.859375 -2.484375 -1.328125q-1.515625 -0.46875 -3.7343597 -0.46875q-3.515625 0 -6.9375 0.796875q-3.421875 0.796875 -6.625 2.25l0 -7.625q2.859375 -1.125 6.578125 -1.859375q3.734375 -0.75 7.7656097 -0.75q4.40625 0 7.5625153 0.84375q3.171875 0.828125 5.21875 2.515625q2.0625 1.671875 3.03125 4.203125q0.984375 2.515625 0.984375 5.875l0 27.109367l-8.171875 0zm-1.359375 -17.546875l-5.8281403 0q-2.4218597 0 -4.1093597 0.46875q-1.671875 0.46875 -2.734375 1.296875q-1.046875 0.8125 -1.53125 1.890625q-0.484375 1.078125 -0.484375 2.28125q0 2.421875 1.5625 3.703125q1.5625 1.265625 4.25 1.265625q1.9999847 0 4.1406097 -1.4375q2.15625 -1.453125 4.7343903 -4.15625l0 -5.3125zm55.03125 -5.3437424q0 0.96875 -0.0625 2.5312424q-0.046875 1.5625 -0.171875 2.9375l-26.09375 0q0 2.609375 0.796875 4.609375q0.8125 1.984375 2.265625 3.34375q1.46875 1.34375 3.515625 2.046875q2.0625 0.703125 4.5625 0.703125q2.890625 0 6.1875 -0.453125q3.296875 -0.453125 6.859375 -1.46875l0 7.578125q-1.53125 0.4375 -3.328125 0.796875q-1.796875 0.34375 -3.671875 0.609375q-1.875 0.28125 -3.796875 0.421875q-1.90625 0.140625 -3.703125 0.140625q-4.53125 0 -8.125 -1.296875q-3.59375 -1.296875 -6.09375 -3.8125q-2.5 -2.515625 -3.828125 -6.21875q-1.328125 -3.71875 -1.328125 -8.609375q0 -4.8437424 1.328125 -8.796867q1.328125 -3.96875 3.75 -6.796875q2.421875 -2.84375 5.875 -4.375q3.46875 -1.546875 7.71875 -1.546875q4.21875 0 7.453125 1.3125q3.25 1.296875 5.4375 3.640625q2.1875 2.34375 3.3125 5.59375q1.140625 3.234375 1.140625 7.109375zm-9.6875 -1.375q0.046875 -2.34375 -0.578125 -4.078125q-0.625 -1.734375 -1.703125 -2.859375q-1.078125 -1.140625 -2.5 -1.6875q-1.421875 -0.546875 -3.0625 -0.546875q-3.59375 0 -5.90625 2.40625q-2.296875 2.390625 -2.734375 6.765625l16.484375 0z" fill-rule="nonzero"/><path fill="#000000" fill-opacity="0.0" d="m0 83.87834l80.91338 0l0 83.40158l-80.91338 0z" fill-rule="evenodd"/><path fill="#134f5c" d="m19.382856 147.505q-3.25 0 -4.578125 -3.40625q-1.3125 -3.421875 -1.3125 -10.921875q0 -11.09375 3.15625 -21.078125q0.765625 -2.46875 2.515625 -3.625q1.75 -1.15625 4.90625 -1.15625q1.703125 0 2.390625 0.4375q0.6875 0.421875 0.6875 1.609375q0 1.375 -1.28125 6.140625q-0.859375 3.421875 -1.375 5.9375q-0.5 2.515625 -0.84375 6.265625q2.296875 -6.65625 5.5 -11.25q3.203127 -4.609375 6.562502 -6.875q3.375 -2.265625 6.359375 -2.265625q3.0 0 4.234375 1.375q1.234375 1.359375 1.234375 4.171875q0 2.734375 -1.625 9.90625q-0.671875 3.0625 -0.9375 4.609375q2.8125 -7.171875 6.265625 -11.6875q3.46875 -4.53125 6.796875 -6.453125q3.328125 -1.921875 6.140625 -1.921875q2.734375 0 4.140625 1.40625q1.40625 1.40625 1.40625 4.140625q0 2.21875 -0.9375 8.359375q-0.859375 5.203125 -1.375 9.859375q-0.5 4.65625 -0.5 10.375q0 3.234375 -1.328125 4.640625q-1.328125 1.40625 -4.3125 1.40625q-2.8125 0 -4.09375 -1.4375q-1.28125 -1.453125 -1.28125 -4.359375q0 -3.40625 1.203125 -11.265625q1.015625 -6.828125 1.015625 -8.703125q0 -1.359375 -0.9375 -1.359375q-1.109375 0 -3.15625 2.859375q-2.046875 2.859375 -4.09375 7.546875q-2.046875 4.6875 -3.328125 9.890625q-0.9375 4.109375 -2.1875 5.46875q-1.234375 1.359375 -3.953125 1.359375q-2.8125 0 -4.234375 -2.6875q-1.40625 -2.6875 -1.40625 -6.515625q0 -3.25 0.859375 -9.390625q0.6875 -5.46875 0.6875 -7.171875q0 -1.359375 -0.9375 -1.359375q-1.28125 0 -3.25 3.078125q-1.9687519 3.0625 -3.796877 7.84375q-1.828125 4.78125 -2.9375 9.375q-0.9375 4.015625 -2.1875 5.421875q-1.234375 1.40625 -3.875 1.40625z" fill-rule="nonzero"/></g></svg>