<svg version="1.1" viewBox="0.0 0.0 675.9527559055118 721.7952755905512" fill="none" stroke="none" stroke-linecap="square" stroke-miterlimit="10" xmlns:xlink="http://www.w3.org/1999/xlink" xmlns="http://www.w3.org/2000/svg"><clipPath id="p.0"><path d="m0 0l675.95276 0l0 721.7953l-675.95276 0l0 -721.7953z" clip-rule="nonzero"/></clipPath><g clip-path="url(#p.0)"><path fill="#000000" fill-opacity="0.0" d="m0 0l675.95276 0l0 721.7953l-675.95276 0z" fill-rule="evenodd"/><path fill="#38761d" d="m0 693.5197l0 0c0 -15.455322 12.528976 -27.984253 27.984251 -27.984253l0 0c7.4218845 0 14.539789 2.9483032 19.787855 8.19635c5.248066 5.248108 8.196396 12.365967 8.196396 19.787903l0 0c0 15.455261 -12.528973 27.984253 -27.984251 27.984253l0 0c-15.455275 0 -27.984251 -12.528992 -27.984251 -27.984253z" fill-rule="evenodd"/><path stroke="#38761d" stroke-width="1.0" stroke-linejoin="round" stroke-linecap="butt" d="m0 693.5197l0 0c0 -15.455322 12.528976 -27.984253 27.984251 -27.984253l0 0c7.4218845 0 14.539789 2.9483032 19.787855 8.19635c5.248066 5.248108 8.196396 12.365967 8.196396 19.787903l0 0c0 15.455261 -12.528973 27.984253 -27.984251 27.984253l0 0c-15.455275 0 -27.984251 -12.528992 -27.984251 -27.984253z" fill-rule="evenodd"/><path fill="#38761d" d="m619.98425 547.7724l0 0c0 -15.455261 12.528931 -27.984253 27.984192 -27.984253l0 0c7.421936 0 14.539795 2.9483032 19.787903 8.196411c5.248047 5.248047 8.19635 12.365967 8.19635 19.787842l0 0c0 15.455261 -12.528931 27.984253 -27.984253 27.984253l0 0c-15.455261 0 -27.984192 -12.528992 -27.984192 -27.984253z" fill-rule="evenodd"/><path stroke="#38761d" stroke-width="1.0" stroke-linejoin="round" stroke-linecap="butt" d="m619.98425 547.7724l0 0c0 -15.455261 12.528931 -27.984253 27.984192 -27.984253l0 0c7.421936 0 14.539795 2.9483032 19.787903 8.196411c5.248047 5.248047 8.19635 12.365967 8.19635 19.787842l0 0c0 15.455261 -12.528931 27.984253 -27.984253 27.984253l0 0c-15.455261 0 -27.984192 -12.528992 -27.984192 -27.984253z" fill-rule="evenodd"/><path fill="#38761d" d="m206.6614 474.90167l0 0c0 -15.455261 12.528976 -27.984253 27.984253 -27.984253l0 0c7.4218903 0 14.539795 2.9483337 19.787857 8.196411c5.248062 5.248047 8.196396 12.365967 8.196396 19.787842l0 0c0 15.455292 -12.528976 27.984253 -27.984253 27.984253l0 0c-15.4552765 0 -27.984253 -12.528961 -27.984253 -27.984253z" fill-rule="evenodd"/><path stroke="#38761d" stroke-width="1.0" stroke-linejoin="round" stroke-linecap="butt" d="m206.6614 474.90167l0 0c0 -15.455261 12.528976 -27.984253 27.984253 -27.984253l0 0c7.4218903 0 14.539795 2.9483337 19.787857 8.196411c5.248062 5.248047 8.196396 12.365967 8.196396 19.787842l0 0c0 15.455292 -12.528976 27.984253 -27.984253 27.984253l0 0c-15.4552765 0 -27.984253 -12.528961 -27.984253 -27.984253z" fill-rule="evenodd"/><path fill="#000000" fill-opacity="0.0" d="m47.80269 673.71313l167.05511 -179.02359" fill-rule="evenodd"/><path stroke="#38761d" stroke-width="4.0" stroke-linejoin="round" stroke-linecap="butt" d="m47.80269 673.71313l167.05511 -179.02359" fill-rule="evenodd"/><path fill="#000000" fill-opacity="0.0" d="m262.6299 474.90167l357.35434 72.8819" fill-rule="evenodd"/><path stroke="#38761d" stroke-width="4.0" stroke-linejoin="round" stroke-linecap="butt" d="m262.6299 474.90167l357.35434 72.8819" fill-rule="evenodd"/><path fill="#000000" fill-opacity="0.0" d="m214.845 455.1072l-63.74803 -33.29132" fill-rule="evenodd"/><path stroke="#38761d" stroke-width="4.0" stroke-linejoin="round" stroke-linecap="butt" d="m214.845 455.1072l-63.74803 -33.29132" fill-rule="evenodd"/><path fill="#38761d" d="m103.32486 402.028l0 0c0 -15.455261 12.528976 -27.984222 27.984253 -27.984222l0 0c7.421875 0 14.53978 2.9483032 19.787857 8.196381c5.248062 5.2480774 8.196396 12.365967 8.196396 19.787842l0 0c0 15.455292 -12.528976 27.984253 -27.984253 27.984253l0 0c-15.4552765 0 -27.984253 -12.528961 -27.984253 -27.984253z" fill-rule="evenodd"/><path stroke="#38761d" stroke-width="1.0" stroke-linejoin="round" stroke-linecap="butt" d="m103.32486 402.028l0 0c0 -15.455261 12.528976 -27.984222 27.984253 -27.984222l0 0c7.421875 0 14.53978 2.9483032 19.787857 8.196381c5.248062 5.2480774 8.196396 12.365967 8.196396 19.787842l0 0c0 15.455292 -12.528976 27.984253 -27.984253 27.984253l0 0c-15.4552765 0 -27.984253 -12.528961 -27.984253 -27.984253z" fill-rule="evenodd"/><path fill="#38761d" d="m493.31558 28.278212l0 0c0 15.455275 -12.528961 27.984251 -27.984253 27.984251l0 0c-7.421875 0 -14.539764 -2.9483337 -19.787842 -8.196396c-5.2480774 -5.248066 -8.196411 -12.365971 -8.196411 -19.787855l0 0c0 -15.4552765 12.528992 -27.984253 27.984253 -27.984253l0 0c15.455292 0 27.984253 12.528976 27.984253 27.984253z" fill-rule="evenodd"/><path stroke="#38761d" stroke-width="1.0" stroke-linejoin="round" stroke-linecap="butt" d="m493.31558 28.278212l0 0c0 15.455275 -12.528961 27.984251 -27.984253 27.984251l0 0c-7.421875 0 -14.539764 -2.9483337 -19.787842 -8.196396c-5.2480774 -5.248066 -8.196411 -12.365971 -8.196411 -19.787855l0 0c0 -15.4552765 12.528992 -27.984253 27.984253 -27.984253l0 0c15.455292 0 27.984253 12.528976 27.984253 27.984253z" fill-rule="evenodd"/><path fill="#38761d" d="m286.65417 246.89622l0 0c0 15.4552765 -12.528961 27.984238 -27.984253 27.984238l0 0c-7.421875 0 -14.53978 -2.9483337 -19.787842 -8.196381c-5.248062 -5.2480774 -8.196396 -12.365967 -8.196396 -19.787857l0 0c0 -15.4552765 12.528976 -27.984253 27.984238 -27.984253l0 0c15.455292 0 27.984253 12.528976 27.984253 27.984253z" fill-rule="evenodd"/><path stroke="#38761d" stroke-width="1.0" stroke-linejoin="round" stroke-linecap="butt" d="m286.65417 246.89622l0 0c0 15.4552765 -12.528961 27.984238 -27.984253 27.984238l0 0c-7.421875 0 -14.53978 -2.9483337 -19.787842 -8.196381c-5.248062 -5.2480774 -8.196396 -12.365967 -8.196396 -19.787857l0 0c0 -15.4552765 12.528976 -27.984253 27.984238 -27.984253l0 0c15.455292 0 27.984253 12.528976 27.984253 27.984253z" fill-rule="evenodd"/><path fill="#000000" fill-opacity="0.0" d="m445.5129 48.084747l-167.05511 179.02362" fill-rule="evenodd"/><path stroke="#38761d" stroke-width="4.0" stroke-linejoin="round" stroke-linecap="butt" d="m445.5129 48.084747l-167.05511 179.02362" fill-rule="evenodd"/><path fill="#000000" fill-opacity="0.0" d="m234.64566 446.91742l24.031494 -172.0315" fill-rule="evenodd"/><path stroke="#38761d" stroke-width="4.0" stroke-linejoin="round" stroke-linecap="butt" d="m234.64566 446.91742l24.031494 -172.0315" fill-rule="evenodd"/><path fill="#000000" fill-opacity="0.0" d="m127.07087 434.5092l79.59055 0l0 80.787384l-79.59055 0z" fill-rule="evenodd"/><path fill="#134f5c" d="m146.22711 496.82877q-3.25 0 -4.578125 -3.40625q-1.3125 -3.421875 -1.3125 -10.921875q0 -11.09375 3.15625 -21.078125q0.765625 -2.46875 2.515625 -3.625q1.75 -1.15625 4.90625 -1.15625q1.703125 0 2.390625 0.4375q0.6875 0.421875 0.6875 1.609375q0 1.375 -1.28125 6.140625q-0.859375 3.421875 -1.375 5.9375q-0.5 2.515625 -0.84375 6.265625q2.296875 -6.65625 5.5 -11.25q3.203125 -4.609375 6.5625 -6.875q3.375 -2.265625 6.359375 -2.265625q3.0 0 4.234375 1.375q1.234375 1.359375 1.234375 4.171875q0 2.734375 -1.625 9.90625q-0.671875 3.0625 -0.9375 4.609375q2.8125 -7.171875 6.265625 -11.6875q3.46875 -4.53125 6.796875 -6.453125q3.328125 -1.921875 6.140625 -1.921875q2.734375 0 4.140625 1.40625q1.40625 1.40625 1.40625 4.140625q0 2.21875 -0.9375 8.359375q-0.859375 5.203125 -1.375 9.859375q-0.5 4.65625 -0.5 10.375q0 3.234375 -1.328125 4.640625q-1.328125 1.40625 -4.3125 1.40625q-2.8125 0 -4.09375 -1.4375q-1.28125 -1.453125 -1.28125 -4.359375q0 -3.40625 1.203125 -11.265625q1.015625 -6.828125 1.015625 -8.703125q0 -1.359375 -0.9375 -1.359375q-1.109375 0 -3.15625 2.859375q-2.046875 2.859375 -4.09375 7.546875q-2.046875 4.6875 -3.328125 9.890625q-0.9375 4.109375 -2.1875 5.46875q-1.234375 1.359375 -3.953125 1.359375q-2.8125 0 -4.234375 -2.6875q-1.40625 -2.6875 -1.40625 -6.515625q0 -3.25 0.859375 -9.390625q0.6875 -5.46875 0.6875 -7.171875q0 -1.359375 -0.9375 -1.359375q-1.28125 0 -3.25 3.078125q-1.96875 3.0625 -3.796875 7.84375q-1.828125 4.78125 -2.9375 9.375q-0.9375 4.015625 -2.1875 5.421875q-1.234375 1.40625 -3.875 1.40625z" fill-rule="nonzero"/><path fill="#000000" fill-opacity="0.0" d="m245.55824 434.5092l209.82677 0l0 80.787384l-209.82677 0z" fill-rule="evenodd"/><path fill="#134f5c" d="m291.29974 447.39603q0 1.28125 -0.46875 2.421875q-0.46875 1.125 -1.3125 1.96875q-0.84375 0.84375 -1.984375 1.328125q-1.125 0.484375 -2.453125 0.484375q-1.328125 0 -2.484375 -0.484375q-1.140625 -0.484375 -1.984375 -1.328125q-0.84375 -0.84375 -1.3125 -1.96875q-0.46875 -1.140625 -0.46875 -2.421875q0 -1.296875 0.46875 -2.421875q0.46875 -1.140625 1.3125 -2.0q0.84375 -0.859375 1.984375 -1.34375q1.15625 -0.484375 2.484375 -0.484375q1.328125 0 2.453125 0.484375q1.140625 0.484375 1.984375 1.34375q0.84375 0.859375 1.3125 2.0q0.46875 1.125 0.46875 2.421875zm-10.546875 18.28125l-11.21875 0l0 -7.421875l20.984375 0l0 32.265625l11.4375 0l0 7.421875l-33.78125 0l0 -7.421875l12.578125 0l0 -24.84375zm56.71875 8.0q0.078125 -2.21875 -0.21875 -3.78125q-0.296875 -1.5625 -0.9375 -2.578125q-0.640625 -1.015625 -1.578125 -1.484375q-0.9375 -0.46875 -2.15625 -0.46875q-2.109375 0 -4.359375 1.734375q-2.234375 1.734375 -4.9375 5.71875l0 25.125l-9.765625 0l0 -39.6875l8.640625 0l0.34375 5.78125q0.984375 -1.53125 2.203125 -2.734375q1.234375 -1.21875 2.734375 -2.09375q1.515625 -0.875 3.34375 -1.34375q1.84375 -0.46875 4.03125 -0.46875q3.0 0 5.328125 1.03125q2.328125 1.03125 3.90625 3.0625q1.578125 2.03125 2.34375 5.109375q0.765625 3.0625 0.640625 7.078125l-9.5625 0zm43.31253 24.265625l-0.234375 -5.203125q-1.25 1.328125 -2.625 2.453125q-1.359375 1.109375 -3.0 1.9375q-1.6406555 0.8125 -3.5781555 1.265625q-1.921875 0.453125 -4.234375 0.453125q-3.046875 0 -5.359375 -0.90625q-2.296875 -0.90625 -3.859375 -2.5q-1.5625 -1.609375 -2.359375 -3.875q-0.796875 -2.265625 -0.796875 -5.0q0 -2.8125 1.1875 -5.1875q1.1875 -2.390625 3.625 -4.109375q2.453125 -1.71875 6.09375 -2.6875q3.65625 -0.984375 8.5781555 -0.984375l5.203125 0l0 -2.375q0 -1.53125 -0.4375 -2.75q-0.421875 -1.234375 -1.390625 -2.09375q-0.953125 -0.859375 -2.484375 -1.328125q-1.515625 -0.46875 -3.7344055 -0.46875q-3.515625 0 -6.9375 0.796875q-3.421875 0.796875 -6.625 2.25l0 -7.625q2.859375 -1.125 6.578125 -1.859375q3.734375 -0.75 7.765625 -0.75q4.4062805 0 7.5625305 0.84375q3.171875 0.828125 5.21875 2.515625q2.0625 1.671875 3.03125 4.203125q0.984375 2.515625 0.984375 5.875l0 27.109375l-8.171875 0zm-1.359375 -17.546875l-5.828125 0q-2.4219055 0 -4.1094055 0.46875q-1.671875 0.46875 -2.734375 1.296875q-1.046875 0.8125 -1.53125 1.890625q-0.484375 1.078125 -0.484375 2.28125q0 2.421875 1.5625 3.703125q1.5625 1.265625 4.25 1.265625q2.0 0 4.1406555 -1.4375q2.15625 -1.453125 4.734375 -4.15625l0 -5.3125zm55.03125 -5.34375q0 0.96875 -0.0625 2.53125q-0.046875 1.5625 -0.171875 2.9375l-26.09375 0q0 2.609375 0.796875 4.609375q0.8125 1.984375 2.265625 3.34375q1.46875 1.34375 3.515625 2.046875q2.0625 0.703125 4.5625 0.703125q2.890625 0 6.1875 -0.453125q3.296875 -0.453125 6.859375 -1.46875l0 7.578125q-1.53125 0.4375 -3.328125 0.796875q-1.796875 0.34375 -3.671875 0.609375q-1.875 0.28125 -3.796875 0.421875q-1.90625 0.140625 -3.703125 0.140625q-4.53125 0 -8.125 -1.296875q-3.59375 -1.296875 -6.09375 -3.8125q-2.5 -2.515625 -3.828125 -6.21875q-1.328125 -3.71875 -1.328125 -8.609375q0 -4.84375 1.328125 -8.796875q1.328125 -3.96875 3.75 -6.796875q2.421875 -2.84375 5.875 -4.375q3.46875 -1.546875 7.71875 -1.546875q4.21875 0 7.453125 1.3125q3.25 1.296875 5.4375 3.640625q2.1875 2.34375 3.3125 5.59375q1.140625 3.234375 1.140625 7.109375zm-9.6875 -1.375q0.046875 -2.34375 -0.578125 -4.078125q-0.625 -1.734375 -1.703125 -2.859375q-1.078125 -1.140625 -2.5 -1.6875q-1.421875 -0.546875 -3.0625 -0.546875q-3.59375 0 -5.90625 2.40625q-2.296875 2.390625 -2.734375 6.765625l16.484375 0z" fill-rule="nonzero"/></g></svg>